Coordinates
version=1
nRows=14
nColumns=40
inDegrees=yes

Units are S.I. units (second, meters, Newtons, ...)
Angles are in degrees.

endheader
time	pelvis_tilt	pelvis_list	pelvis_rotation	pelvis_tx	pelvis_ty	pelvis_tz	hip_flexion_r	hip_adduction_r	hip_rotation_r	knee_angle_r	knee_angle_r_beta	ankle_angle_r	subtalar_angle_r	mtp_angle_r	hip_flexion_l	hip_adduction_l	hip_rotation_l	knee_angle_l	knee_angle_l_beta	ankle_angle_l	subtalar_angle_l	mtp_angle_l	lumbar_extension	lumbar_bending	lumbar_rotation	arm_flex_r	arm_add_r	arm_rot_r	elbow_flex_r	pro_sup_r	wrist_flex_r	wrist_dev_r	arm_flex_l	arm_add_l	arm_rot_l	elbow_flex_l	pro_sup_l	wrist_flex_l	wrist_dev_l
     58.06500000	     -6.55316293	     -1.48008756	     -2.93358813	      0.96552880	      0.92230257	      0.43288149	     33.41863951	     -6.34629606	    -10.25076409	     20.62887771	     20.62887771	     -0.86421007	     -0.65227180	      4.03059735	      3.23757522	     -1.87681902	    -12.90590864	     10.97193604	     10.97193604	     16.05153980	      0.09845502	     -8.75871097	    -11.73580233	      1.98243815	      2.79755160	    -18.61572220	    -14.73371115	    -14.20574840	     20.76779149	     47.48354417	      0.00000000	      0.00000000	     30.53624285	    -20.16767132	      0.41709115	     86.27510883	     47.40371829	      0.00000000	      0.00000000
     58.07635714	     -6.41128017	     -1.23070887	     -2.89692859	      0.96689291	      0.92050196	      0.43451488	     32.60679993	     -6.33390533	    -11.51630081	     18.20381154	     18.20381154	      0.76884190	      1.49797403	      8.60329793	      2.21109203	     -1.62244555	    -12.91113482	     10.55763358	     10.55763358	     16.44119349	      0.36863629	     -9.11454460	    -11.87300385	      1.71408746	      2.41407067	    -20.67546189	    -14.76973241	    -14.11215650	     23.15584208	     47.30391780	      0.00000000	      0.00000000	     29.63142249	    -20.99534249	     -0.04624096	     90.39903460	     47.55615058	      0.00000000	      0.00000000
     58.08771429	     -6.41343129	     -1.09883155	     -2.88662864	      0.96815852	      0.91844841	      0.43668056	     31.82338717	     -5.97610053	    -12.18221503	     15.85729143	     15.85729143	      0.84963689	      2.23800415	      9.50099892	      1.56129627	     -1.58076635	    -12.81780940	     10.57736768	     10.57736768	     16.97598076	      0.25659245	     -9.23557834	    -11.69939530	      1.50695347	      2.61324943	    -21.88483889	    -14.52348883	    -13.99170745	     22.88333724	     47.28645667	      0.00000000	      0.00000000	     29.91980113	    -20.91287783	     -0.22312552	     91.40647638	     47.59465122	      0.00000000	      0.00000000
     58.09907143	     -6.28901270	     -1.06526015	     -2.85621524	      0.96971505	      0.91661039	      0.43887344	     31.15522531	     -5.71401215	    -13.24255099	     14.57919018	     14.57919018	      1.38877395	      3.55896054	     10.97645308	      0.73226404	     -1.63714621	    -12.66722038	     10.58370025	     10.58370025	     17.74378370	      0.26279392	     -8.80028873	    -11.69515207	      1.44620207	      2.70418221	    -23.19520502	    -14.38272749	    -13.64530262	     23.49234504	     47.19216165	      0.00000000	      0.00000000	     29.54140051	    -20.89603830	     -0.49013146	     93.89106881	     47.69086849	      0.00000000	      0.00000000
     58.11042857	     -6.29720472	     -1.17462417	     -2.83883863	      0.97114678	      0.91472414	      0.44150480	     30.64814995	     -5.22173633	    -13.78994000	     13.70033950	     13.70033950	      1.30348644	      3.91762777	     11.15300581	      0.21543107	     -1.92217585	    -12.46065519	     10.89728485	     10.89728485	     18.38346385	     -0.01479336	     -8.66842689	    -11.52524144	      1.53645879	      2.95238492	    -24.07365418	    -14.11515419	    -13.48599250	     23.38061670	     47.16666604	      0.00000000	      0.00000000	     29.40494390	    -20.77875685	     -0.67829481	     95.04043415	     47.73533493	      0.00000000	      0.00000000
     58.12178571	     -6.29395969	     -1.26747034	     -2.79813285	      0.97268433	      0.91295853	      0.44427485	     30.29512252	     -4.85346104	    -14.29834449	     13.51011208	     13.51011208	      0.66821613	      4.12436159	      9.18800317	     -0.18322681	     -2.24766657	    -12.36439805	     11.54365946	     11.54365946	     19.73541138	      0.08919941	     -6.91090073	    -11.42462900	      1.58215086	      2.57627406	    -24.60763601	    -14.10885193	    -12.67459147	     24.03838841	     47.02842771	      0.00000000	      0.00000000	     28.30960327	    -21.06277744	     -1.69957126	     97.58055610	     47.90489015	      0.00000000	      0.00000000
     58.13314286	     -6.30324744	     -1.46590065	     -2.76988577	      0.97423561	      0.91134086	      0.44732556	     30.00329635	     -4.38439365	    -14.48470629	     13.69649323	     13.69649323	     -0.45491161	      3.74256945	      5.73533841	     -0.48093343	     -2.74155190	    -12.29974407	     12.35159896	     12.35159896	     20.88260229	      0.11577810	     -5.60059846	    -11.26632902	      1.72991365	      2.59483486	    -24.82377610	    -13.98400219	    -11.50546069	     23.73085032	     46.90891119	      0.00000000	      0.00000000	     27.60168454	    -20.92326998	     -2.29979651	     99.05467521	     48.04433818	      0.00000000	      0.00000000
     58.14450000	     -6.31455862	     -1.74111448	     -2.75880146	      0.97567660	      0.91001064	      0.45052474	     29.98112138	     -3.95617510	    -14.58558910	     14.68927293	     14.68927293	     -0.55116564	      3.33206789	      4.83822067	     -0.74145017	     -3.30992417	    -11.99251407	     13.15133926	     13.15133926	     21.35621814	     -0.43172273	     -5.49155884	    -11.14268875	      1.96256382	      2.99100740	    -25.02671083	    -13.66771923	    -11.33527785	     23.55695091	     46.89593336	      0.00000000	      0.00000000	     27.17464211	    -20.52874902	     -2.38521543	     99.87131113	     48.07385766	      0.00000000	      0.00000000
     58.15585714	     -6.32351784	     -2.02073719	     -2.72578569	      0.97718012	      0.90897210	      0.45382827	     29.99837886	     -3.56902652	    -14.52608376	     15.92653503	     15.92653503	     -0.68807537	      2.67337956	      3.48745591	     -0.90408209	     -3.91742387	    -11.71473043	     14.13967162	     14.13967162	     21.84791527	     -1.04051150	     -5.20197544	    -11.01356872	      2.21658709	      3.24222879	    -24.89028684	    -13.35087053	    -11.17038193	     23.44401435	     46.88485992	      0.00000000	      0.00000000	     26.46108378	    -20.21444233	     -2.61632412	    100.69655448	     48.11096611	      0.00000000	      0.00000000
     58.16721429	     -6.31104497	     -2.30835551	     -2.67950453	      0.97865759	      0.90824944	      0.45722820	     30.03385353	     -3.19898110	    -14.32836515	     17.32661709	     17.32661709	     -0.76789508	      1.83500070	      1.90525730	     -0.92566861	     -4.58161666	    -11.40860622	     15.43657944	     15.43657944	     22.26224501	     -1.69593450	     -4.86202958	    -10.94783088	      2.45910193	      3.39571844	    -24.47817927	    -13.08671479	    -10.98855764	     23.31370481	     46.87676572	      0.00000000	      0.00000000	     25.53490188	    -19.88808768	     -2.98536035	    101.50992387	     48.15564209	      0.00000000	      0.00000000
     58.17857143	     -6.24572429	     -2.58232731	     -2.63828918	      0.98022979	      0.90806570	      0.46082217	     29.71983734	     -2.70808698	    -13.83708572	     18.10876697	     18.10876697	     -1.90461392	      0.28234509	     -2.50530918	     -0.86228298	     -5.29744359	    -11.19445448	     17.05348571	     17.05348571	     22.99733916	     -2.04620492	     -3.33461634	    -10.95571793	      2.63092887	      2.50368687	    -22.80941406	    -13.13709147	    -10.13386414	     22.33451495	     46.86019857	      0.00000000	      0.00000000	     23.27459790	    -19.90716876	     -4.97152206	    103.47655947	     48.35676075	      0.00000000	      0.00000000
     58.18992857	     -6.19366449	     -2.82755498	     -2.59419313	      0.98159972	      0.90816752	      0.46436576	     29.64567373	     -2.40883802	    -13.70790238	     19.46232909	     19.46232909	     -1.34730935	     -0.25418445	     -3.11515640	     -0.59292705	     -5.99607274	    -10.85608630	     18.90225370	     18.90225370	     22.85567259	     -2.93973904	     -3.59030189	    -10.94345316	      2.80781104	      2.84349583	    -22.06634776	    -12.79291911	     -9.85181917	     22.27155888	     46.84468407	      0.00000000	      0.00000000	     22.32805881	    -19.35186708	     -4.96821404	    103.49966072	     48.36290135	      0.00000000	      0.00000000
     58.20128571	     -6.11059739	     -3.06103816	     -2.55281965	      0.98286017	      0.90876539	      0.46794087	     29.41143006	     -2.06981419	    -13.48675879	     20.54416052	     20.54416052	     -0.70754675	     -0.83776627	     -3.42437097	     -0.16481264	     -6.70520287	    -10.43471540	     21.05514632	     21.05514632	     22.36996256	     -4.03325650	     -4.01314724	    -11.01008906	      2.97577803	      3.00644508	    -20.95786022	    -12.51461034	     -9.55792082	     22.25822237	     46.83070781	      0.00000000	      0.00000000	     21.07474846	    -18.86168579	     -5.22565726	    103.51595088	     48.38467009	      0.00000000	      0.00000000
     58.21264286	     -6.02322399	     -3.26007784	     -2.50475555	      0.98401578	      0.90974732	      0.47152777	     29.07580143	     -1.74450946	    -13.28045686	     21.41897485	     21.41897485	      0.13351650	     -1.31164398	     -3.26393707	      0.45377740	     -7.37975453	     -9.86036003	     23.47340270	     23.47340270	     21.30280295	     -5.55145931	     -5.04803826	    -11.11726704	      3.06874388	      2.83239748	    -19.34459958	    -12.31065944	     -9.03620173	     22.01400833	     46.81426807	      0.00000000	      0.00000000	     19.42944422	    -18.41274518	     -6.05986506	    103.61751921	     48.45264096	      0.00000000	      0.00000000
